<?xml version="1.0" standalone="no"?>
<!DOCTYPE svg PUBLIC "-//W3C//DTD SVG 20010904//EN"
 "http://www.w3.org/TR/2001/REC-SVG-20010904/DTD/svg10.dtd">
<svg version="1.0" xmlns="http://www.w3.org/2000/svg"
 width="260.000000pt" height="260.000000pt" viewBox="0 0 260.000000 260.000000"
 preserveAspectRatio="xMidYMid meet">
<metadata>
Created by potrace 1.11, written by Peter Selinger 2001-2013
</metadata>
<g transform="translate(0.000000,260.000000) scale(0.100000,-0.100000)"
fill="#000000" stroke="none">
<path d="M197 2264 c-31 -10 -64 -30 -92 -59 -72 -72 -75 -90 -75 -522 l0
-373 418 0 417 0 350 350 c192 193 354 350 360 350 6 0 168 -157 360 -350
l350 -350 143 0 143 0 -3 393 c-3 388 -3 393 -26 440 -30 59 -82 103 -146 122
-74 22 -2127 21 -2199 -1z m460 -295 c51 -25 78 -59 94 -122 42 -153 -141
-282 -274 -193 -99 67 -113 197 -29 281 57 57 135 70 209 34z"/>
<path d="M31 883 c1 -197 4 -368 7 -381 6 -20 51 22 387 358 l380 380 -388 0
-387 0 1 -357z"/>
<path d="M2216 1149 l-95 -90 -91 87 -90 87 -90 -88 -90 -88 -90 87 -91 87
-92 -85 -91 -84 -93 84 -92 85 -91 -87 -90 -87 -78 76 -78 76 -394 -395 -395
-395 37 -33 c21 -18 55 -38 76 -44 56 -17 2148 -17 2203 0 51 15 114 69 142
122 21 40 22 51 25 409 l3 367 -129 0 -130 0 -96 -91z"/>
</g>
</svg>
