<?xml version="1.0" encoding="utf-8"?>
<!-- Generator: Adobe Illustrator 19.2.1, SVG Export Plug-In . SVG Version: 6.00 Build 0)  -->
<svg version="1.1" id="Layer_1" xmlns="http://www.w3.org/2000/svg" xmlns:xlink="http://www.w3.org/1999/xlink" x="0px" y="0px"
	 viewBox="0 0 462 83.1" style="enable-background:new 0 0 462 83.1;" xml:space="preserve">
<style type="text/css">
	.st0{fill:#1A171A;}
	.st1{fill:#056A37;}
	.st2{fill:#93969A;}
	.st3{fill:#FFFFFF;}
	.st4{fill:none;}
	.st5{fill:#1591D0;}
	.st6{fill:#222559;}
</style>
<g>
	<g>
		<g>
			<path class="st0" d="M123.6,10h13.8c0.9,0,1.9,0.1,3,0.3s2.1,0.6,3.1,1.3c1,0.7,1.7,1.6,2.4,2.8c0.6,1.2,1,2.8,1,4.7
				c0,2.8-0.9,5-2.6,6.6S140,28,136.7,28h-11.1v14.5h-2V10z M125.6,26.3H137c1.5,0,2.7-0.2,3.7-0.7c1-0.4,1.8-1,2.4-1.7
				c0.6-0.7,1-1.5,1.3-2.3c0.3-0.8,0.4-1.7,0.4-2.5c0-0.6-0.1-1.3-0.3-2.2s-0.5-1.6-1.1-2.4s-1.3-1.4-2.3-2c-1-0.5-2.3-0.8-3.9-0.8
				h-11.7V26.3z"/>
			<path class="st0" d="M173.4,37.8L173.4,37.8c-0.4,0.7-0.8,1.4-1.3,2c-0.5,0.6-1.1,1.2-1.9,1.7c-0.7,0.5-1.6,0.9-2.5,1.1
				c-0.9,0.3-2,0.4-3.1,0.4c-2.5,0-4.4-0.5-5.8-1.6c-1.4-1.1-2-2.7-2-5c0-1.4,0.3-2.5,0.8-3.3c0.5-0.9,1.2-1.5,2.1-2
				c0.8-0.5,1.8-0.9,2.8-1.1c1-0.2,2-0.4,2.9-0.5l2.7-0.2c1.2-0.1,2.2-0.2,2.9-0.4c0.7-0.2,1.2-0.5,1.6-0.8s0.6-0.8,0.7-1.3
				c0.1-0.5,0.1-1.2,0.1-2c0-0.6-0.1-1.2-0.4-1.8c-0.2-0.5-0.6-1-1.1-1.5c-0.5-0.4-1.2-0.8-2-1c-0.8-0.2-1.8-0.4-3-0.4
				c-2.1,0-3.8,0.5-5.1,1.5c-1.3,1-2,2.6-2.1,4.7H158c0.1-2.6,0.9-4.5,2.5-5.8c1.5-1.3,3.7-1.9,6.5-1.9c2.8,0,4.9,0.6,6.2,1.7
				c1.3,1.1,1.9,2.6,1.9,4.3v13.6c0,0.3,0,0.7,0,1c0,0.3,0.1,0.6,0.2,0.9c0.1,0.3,0.2,0.5,0.5,0.7c0.2,0.2,0.5,0.2,0.9,0.2
				c0.3,0,0.7,0,1.3-0.1v1.5c-0.5,0.1-0.9,0.2-1.4,0.2c-0.7,0-1.2-0.1-1.7-0.3s-0.7-0.4-0.9-0.7c-0.2-0.3-0.4-0.7-0.4-1.1
				c-0.1-0.4-0.1-0.9-0.1-1.3V37.8z M173.4,29.2c-0.4,0.5-1.1,0.9-1.9,1s-1.8,0.3-2.9,0.4l-2.9,0.3c-0.8,0.1-1.7,0.2-2.5,0.4
				c-0.8,0.2-1.6,0.4-2.3,0.8s-1.2,0.9-1.7,1.6c-0.4,0.7-0.6,1.6-0.6,2.7c0,1.7,0.5,3,1.6,3.8c1.1,0.8,2.6,1.2,4.5,1.2
				c2,0,3.5-0.4,4.7-1.1s2-1.5,2.6-2.5c0.6-0.9,1-1.8,1.2-2.7c0.2-0.9,0.2-1.4,0.2-1.8V29.2z"/>
			<path class="st0" d="M207.3,26.3c-0.1-1-0.4-1.9-0.8-2.7c-0.4-0.8-1-1.4-1.7-2c-0.7-0.5-1.5-0.9-2.4-1.2c-0.9-0.3-1.9-0.4-3-0.4
				c-1.5,0-2.7,0.3-3.9,0.9s-2.1,1.4-2.8,2.4c-0.8,1-1.3,2.1-1.7,3.4c-0.4,1.3-0.6,2.6-0.6,3.9c0,1.6,0.2,3,0.5,4.4
				c0.4,1.3,0.9,2.5,1.7,3.5c0.8,1,1.7,1.7,2.8,2.3c1.1,0.5,2.4,0.8,4,0.8c1.1,0,2.1-0.2,3-0.5c0.9-0.4,1.7-0.9,2.5-1.5
				c0.7-0.6,1.3-1.4,1.8-2.3c0.5-0.9,0.8-1.9,0.9-2.9h1.7c-0.2,1.4-0.6,2.6-1.1,3.7c-0.6,1.1-1.3,2-2.2,2.7c-0.9,0.7-1.9,1.3-3,1.7
				c-1.1,0.4-2.3,0.6-3.5,0.6c-1.9,0-3.5-0.3-4.9-1c-1.3-0.7-2.5-1.6-3.3-2.7c-0.9-1.2-1.5-2.5-1.9-4c-0.4-1.5-0.6-3.1-0.6-4.7
				c0-1.6,0.2-3.2,0.7-4.6c0.5-1.5,1.2-2.7,2.1-3.8c0.9-1.1,2-2,3.4-2.6c1.3-0.6,2.9-1,4.6-1c1.3,0,2.5,0.2,3.6,0.5
				c1.1,0.3,2.1,0.8,3,1.4c0.9,0.6,1.6,1.4,2.1,2.4c0.5,1,0.9,2.1,1,3.4H207.3z"/>
			<path class="st0" d="M222.8,14.7V10h1.7v4.7H222.8z M222.8,42.5V19.1h1.7v23.4H222.8z"/>
			<path class="st0" d="M236.5,20.6v-1.5h4.2v-4.8c0-0.8,0.1-1.5,0.4-2.1c0.3-0.6,0.6-1.1,1.1-1.4c0.5-0.4,1-0.6,1.6-0.8
				s1.3-0.3,2-0.3c0.5,0,1.2,0.1,2,0.2v1.5c-0.8-0.2-1.5-0.2-2-0.2c-1,0-1.8,0.2-2.4,0.7c-0.7,0.4-1,1.3-1,2.6v4.7h4.9v1.5h-4.9
				v21.9h-1.7V20.6H236.5z"/>
			<path class="st0" d="M259.5,14.7V10h1.7v4.7H259.5z M259.5,42.5V19.1h1.7v23.4H259.5z"/>
			<path class="st0" d="M293.4,26.3c-0.1-1-0.4-1.9-0.8-2.7c-0.4-0.8-1-1.4-1.7-2c-0.7-0.5-1.5-0.9-2.4-1.2c-0.9-0.3-1.9-0.4-3-0.4
				c-1.5,0-2.7,0.3-3.9,0.9s-2.1,1.4-2.8,2.4c-0.8,1-1.3,2.1-1.7,3.4c-0.4,1.3-0.6,2.6-0.6,3.9c0,1.6,0.2,3,0.5,4.4
				c0.4,1.3,0.9,2.5,1.7,3.5c0.8,1,1.7,1.7,2.8,2.3c1.1,0.5,2.4,0.8,4,0.8c1.1,0,2.1-0.2,3-0.5c0.9-0.4,1.7-0.9,2.5-1.5
				c0.7-0.6,1.3-1.4,1.8-2.3c0.5-0.9,0.8-1.9,0.9-2.9h1.7c-0.2,1.4-0.6,2.6-1.1,3.7c-0.6,1.1-1.3,2-2.2,2.7c-0.9,0.7-1.9,1.3-3,1.7
				c-1.1,0.4-2.3,0.6-3.5,0.6c-1.9,0-3.5-0.3-4.9-1c-1.3-0.7-2.5-1.6-3.3-2.7c-0.9-1.2-1.5-2.5-1.9-4c-0.4-1.5-0.6-3.1-0.6-4.7
				c0-1.6,0.2-3.2,0.7-4.6c0.5-1.5,1.2-2.7,2.1-3.8c0.9-1.1,2-2,3.4-2.6c1.3-0.6,2.9-1,4.6-1c1.3,0,2.5,0.2,3.6,0.5
				c1.1,0.3,2.1,0.8,3,1.4c0.9,0.6,1.6,1.4,2.1,2.4c0.5,1,0.9,2.1,1,3.4H293.4z"/>
			<path class="st1" d="M307.7,26.4c0-2.3,0.3-4.5,1-6.6s1.7-3.9,3-5.5s2.9-2.8,4.8-3.8c1.9-0.9,4.1-1.4,6.5-1.4
				c1.7,0,3.3,0.2,4.8,0.7c1.5,0.5,2.9,1.2,4.1,2.1c1.2,0.9,2.2,2.1,3,3.4c0.8,1.3,1.4,2.8,1.6,4.5h-1.9c-0.8-2.8-2.1-5.1-4.1-6.7
				c-2-1.6-4.5-2.4-7.5-2.4c-2.2,0-4.1,0.4-5.8,1.3c-1.7,0.8-3.1,2-4.2,3.4s-2,3.1-2.5,4.9c-0.6,1.9-0.9,3.8-0.9,5.8
				c0,2.1,0.3,4,0.8,5.8c0.6,1.8,1.4,3.4,2.5,4.8s2.5,2.4,4.2,3.2c1.7,0.8,3.6,1.2,5.9,1.2c1.9,0,3.7-0.3,5.2-1
				c1.5-0.6,2.9-1.5,3.9-2.7c1.1-1.2,1.9-2.5,2.4-4.2c0.5-1.6,0.8-3.4,0.7-5.4h-12v-1.7H337v15.9h-1.7v-6.9h-0.1
				c-0.4,1.2-1,2.2-1.8,3.2c-0.8,1-1.7,1.8-2.8,2.4c-1.1,0.7-2.3,1.2-3.6,1.5c-1.3,0.4-2.7,0.5-4.1,0.5c-2.5,0-4.6-0.4-6.5-1.3
				c-1.9-0.9-3.5-2.1-4.8-3.6c-1.3-1.5-2.3-3.3-3-5.3C308,30.9,307.7,28.8,307.7,26.4z"/>
			<path class="st1" d="M353,24.3h0.1c0.2-0.8,0.6-1.5,1.2-2.1c0.6-0.7,1.2-1.2,2-1.7c0.8-0.5,1.7-0.9,2.7-1.1c1-0.3,2-0.4,3.1-0.3
				v1.7c-0.9-0.1-1.9,0-3.1,0.3c-1.2,0.3-2.3,1-3.3,2c-0.4,0.5-0.8,0.9-1.1,1.3c-0.3,0.4-0.6,0.9-0.8,1.4c-0.2,0.5-0.4,1.1-0.5,1.7
				c-0.1,0.6-0.2,1.4-0.2,2.3v12.8h-1.7V19.1h1.7V24.3z"/>
			<path class="st1" d="M373.1,31v0.3c0,1.4,0.2,2.7,0.5,3.9c0.4,1.2,0.9,2.3,1.6,3.3s1.6,1.7,2.7,2.2c1.1,0.5,2.3,0.8,3.8,0.8
				c2.3,0,4.2-0.6,5.6-1.8c1.4-1.2,2.3-2.9,2.8-5.1h1.7c-0.5,2.7-1.6,4.8-3.3,6.3c-1.7,1.5-4,2.2-6.8,2.2c-1.7,0-3.2-0.3-4.5-0.9
				c-1.3-0.6-2.4-1.5-3.2-2.5c-0.9-1.1-1.5-2.3-1.9-3.8c-0.4-1.5-0.6-3.1-0.6-4.7c0-1.6,0.2-3.2,0.7-4.7c0.4-1.5,1.1-2.8,2-4
				c0.9-1.1,2-2,3.3-2.7c1.3-0.7,2.9-1,4.7-1c1.6,0,3.1,0.3,4.3,0.9c1.3,0.6,2.3,1.4,3.2,2.5c0.8,1,1.5,2.3,1.9,3.6
				c0.4,1.4,0.7,2.9,0.7,4.4c0,0.2,0,0.3,0,0.5c0,0.2,0,0.4,0,0.5H373.1z M390.3,29.5c-0.1-1.3-0.3-2.5-0.6-3.6
				c-0.4-1.1-0.9-2.1-1.6-3s-1.6-1.6-2.6-2.1c-1-0.5-2.2-0.8-3.5-0.8c-1.4,0-2.6,0.3-3.7,0.8c-1.1,0.5-2,1.2-2.7,2.1
				c-0.7,0.9-1.3,1.9-1.7,3c-0.4,1.2-0.6,2.3-0.7,3.5H390.3z"/>
			<path class="st1" d="M405.8,31v0.3c0,1.4,0.2,2.7,0.5,3.9c0.4,1.2,0.9,2.3,1.6,3.3s1.6,1.7,2.7,2.2c1.1,0.5,2.3,0.8,3.8,0.8
				c2.3,0,4.2-0.6,5.6-1.8c1.4-1.2,2.3-2.9,2.8-5.1h1.7c-0.5,2.7-1.6,4.8-3.3,6.3c-1.7,1.5-4,2.2-6.8,2.2c-1.7,0-3.2-0.3-4.5-0.9
				c-1.3-0.6-2.4-1.5-3.2-2.5c-0.9-1.1-1.5-2.3-1.9-3.8c-0.4-1.5-0.6-3.1-0.6-4.7c0-1.6,0.2-3.2,0.7-4.7c0.4-1.5,1.1-2.8,2-4
				c0.9-1.1,2-2,3.3-2.7c1.3-0.7,2.9-1,4.7-1c1.6,0,3.1,0.3,4.3,0.9c1.3,0.6,2.3,1.4,3.2,2.5c0.8,1,1.5,2.3,1.9,3.6
				c0.4,1.4,0.7,2.9,0.7,4.4c0,0.2,0,0.3,0,0.5c0,0.2,0,0.4,0,0.5H405.8z M423,29.5c-0.1-1.3-0.3-2.5-0.6-3.6
				c-0.4-1.1-0.9-2.1-1.6-3s-1.6-1.6-2.6-2.1c-1-0.5-2.2-0.8-3.5-0.8c-1.4,0-2.6,0.3-3.7,0.8c-1.1,0.5-2,1.2-2.7,2.1
				c-0.7,0.9-1.3,1.9-1.7,3c-0.4,1.2-0.6,2.3-0.7,3.5H423z"/>
			<path class="st1" d="M437.8,19.1h1.7v5h0.1c0.3-0.9,0.7-1.7,1.3-2.3s1.2-1.3,2-1.7s1.6-0.8,2.4-1.1s1.8-0.4,2.7-0.4
				c1.4,0,2.5,0.2,3.5,0.5c1,0.3,1.7,0.8,2.3,1.3c0.6,0.5,1.1,1.2,1.4,1.8c0.3,0.7,0.6,1.4,0.8,2.1c0.2,0.7,0.2,1.4,0.3,2
				c0,0.7,0,1.2,0,1.7v14.5h-1.7V27.7c0-0.6,0-1.3-0.1-2.2s-0.4-1.7-0.8-2.5s-1.1-1.5-2-2.1c-0.9-0.6-2.1-0.9-3.7-0.9
				c-1.3,0-2.5,0.2-3.5,0.7s-1.9,1.2-2.6,2c-0.7,0.9-1.3,1.9-1.7,3.1c-0.4,1.2-0.6,2.5-0.6,3.9v12.6h-1.7V19.1z"/>
		</g>
	</g>
	<g>
		<g>
			<path class="st2" d="M122.5,54.2v-1.1h15.2v1.1h-7V73h-1.2V54.2H122.5z"/>
			<path class="st2" d="M142.2,66v0.2c0,0.8,0.1,1.6,0.3,2.4s0.6,1.4,1,2c0.4,0.6,1,1,1.6,1.4c0.7,0.3,1.4,0.5,2.3,0.5
				c1.4,0,2.6-0.4,3.4-1.1c0.8-0.8,1.4-1.8,1.7-3.1h1.1c-0.3,1.7-1,3-2,3.8c-1,0.9-2.4,1.3-4.2,1.3c-1.1,0-2-0.2-2.8-0.6
				c-0.8-0.4-1.5-0.9-2-1.6c-0.5-0.7-0.9-1.4-1.2-2.3c-0.3-0.9-0.4-1.9-0.4-2.9c0-1,0.1-2,0.4-2.9s0.7-1.7,1.2-2.4
				c0.5-0.7,1.2-1.3,2-1.7c0.8-0.4,1.8-0.6,2.9-0.6c1,0,1.9,0.2,2.7,0.6s1.4,0.9,1.9,1.5c0.5,0.6,0.9,1.4,1.2,2.2s0.4,1.8,0.4,2.7
				c0,0.1,0,0.2,0,0.3c0,0.1,0,0.2,0,0.3H142.2z M152.7,65.1c0-0.8-0.2-1.5-0.4-2.2c-0.2-0.7-0.6-1.3-1-1.8c-0.4-0.5-1-1-1.6-1.3
				c-0.6-0.3-1.3-0.5-2.1-0.5c-0.9,0-1.6,0.2-2.3,0.5c-0.7,0.3-1.2,0.8-1.6,1.3c-0.4,0.5-0.8,1.1-1,1.9s-0.4,1.4-0.4,2.2H152.7z"/>
			<path class="st2" d="M172.6,63.1c-0.1-0.6-0.2-1.2-0.5-1.7c-0.3-0.5-0.6-0.9-1-1.2c-0.4-0.3-0.9-0.6-1.5-0.7
				c-0.6-0.2-1.2-0.3-1.8-0.3c-0.9,0-1.7,0.2-2.4,0.5s-1.3,0.8-1.7,1.5s-0.8,1.3-1.1,2.1c-0.2,0.8-0.4,1.6-0.4,2.4
				c0,1,0.1,1.9,0.3,2.7c0.2,0.8,0.6,1.5,1,2.1c0.5,0.6,1,1.1,1.7,1.4c0.7,0.3,1.5,0.5,2.4,0.5c0.7,0,1.3-0.1,1.9-0.3
				c0.6-0.2,1.1-0.5,1.5-0.9s0.8-0.9,1.1-1.4c0.3-0.5,0.5-1.1,0.6-1.8h1.1c-0.1,0.9-0.3,1.6-0.7,2.3c-0.4,0.7-0.8,1.2-1.3,1.7
				c-0.5,0.5-1.2,0.8-1.8,1c-0.7,0.2-1.4,0.4-2.2,0.4c-1.2,0-2.2-0.2-3-0.6c-0.8-0.4-1.5-1-2-1.7c-0.5-0.7-0.9-1.5-1.2-2.4
				s-0.4-1.9-0.4-2.9c0-1,0.1-2,0.4-2.8s0.7-1.7,1.3-2.3s1.2-1.2,2.1-1.6c0.8-0.4,1.8-0.6,2.8-0.6c0.8,0,1.5,0.1,2.2,0.3
				c0.7,0.2,1.3,0.5,1.8,0.9c0.5,0.4,1,0.9,1.3,1.5c0.3,0.6,0.5,1.3,0.6,2.1H172.6z"/>
			<path class="st2" d="M182.9,53.1v8.6h0.1c0.2-0.5,0.5-1,0.8-1.4c0.3-0.4,0.7-0.8,1.2-1.1c0.5-0.3,1-0.5,1.5-0.7
				c0.5-0.1,1.1-0.2,1.6-0.2c0.8,0,1.5,0.1,2.1,0.3s1.1,0.5,1.4,0.8c0.4,0.3,0.7,0.7,0.9,1.1c0.2,0.4,0.4,0.8,0.5,1.3
				c0.1,0.4,0.1,0.8,0.2,1.2s0,0.7,0,1V73h-1.1v-9.1c0-0.4,0-0.8-0.1-1.3c-0.1-0.5-0.2-1.1-0.5-1.5s-0.7-0.9-1.2-1.3
				c-0.5-0.4-1.3-0.5-2.3-0.5c-0.8,0-1.5,0.1-2.2,0.4c-0.6,0.3-1.2,0.7-1.6,1.2c-0.4,0.5-0.8,1.2-1,1.9s-0.3,1.5-0.3,2.4V73h-1.1
				V53.1H182.9z"/>
			<path class="st2" d="M201.9,58.7h1.1v3.1h0.1c0.2-0.5,0.5-1,0.8-1.4c0.3-0.4,0.7-0.8,1.2-1.1c0.5-0.3,1-0.5,1.5-0.7
				c0.5-0.1,1.1-0.2,1.6-0.2c0.8,0,1.5,0.1,2.1,0.3s1.1,0.5,1.4,0.8c0.4,0.3,0.7,0.7,0.9,1.1c0.2,0.4,0.4,0.8,0.5,1.3
				c0.1,0.4,0.1,0.8,0.2,1.2s0,0.7,0,1V73h-1.1v-9.1c0-0.4,0-0.8-0.1-1.3c-0.1-0.5-0.2-1.1-0.5-1.5s-0.7-0.9-1.2-1.3
				c-0.5-0.4-1.3-0.5-2.3-0.5c-0.8,0-1.5,0.1-2.2,0.4c-0.6,0.3-1.2,0.7-1.6,1.2c-0.4,0.5-0.8,1.2-1,1.9s-0.3,1.5-0.3,2.4V73h-1.1
				V58.7z"/>
			<path class="st2" d="M221.3,65.8c0-1,0.1-2,0.4-2.9s0.7-1.7,1.3-2.4c0.6-0.7,1.2-1.2,2.1-1.6c0.8-0.4,1.8-0.6,2.8-0.6
				c1.1,0,2,0.2,2.8,0.6c0.8,0.4,1.5,0.9,2.1,1.6c0.6,0.7,1,1.5,1.3,2.4c0.3,0.9,0.4,1.9,0.4,2.9c0,1-0.1,2-0.4,2.9
				c-0.3,0.9-0.7,1.7-1.3,2.4c-0.6,0.7-1.2,1.2-2.1,1.6c-0.8,0.4-1.8,0.6-2.8,0.6c-1.1,0-2-0.2-2.8-0.6c-0.8-0.4-1.5-0.9-2.1-1.6
				c-0.6-0.7-1-1.5-1.3-2.4S221.3,66.9,221.3,65.8z M222.3,65.8c0,0.9,0.1,1.7,0.4,2.5c0.2,0.8,0.6,1.5,1.1,2.1
				c0.5,0.6,1,1.1,1.7,1.5c0.7,0.4,1.5,0.5,2.4,0.5c0.9,0,1.7-0.2,2.4-0.5s1.3-0.9,1.7-1.5c0.5-0.6,0.8-1.3,1.1-2.1
				c0.2-0.8,0.4-1.6,0.4-2.5c0-0.9-0.1-1.7-0.4-2.5c-0.2-0.8-0.6-1.5-1.1-2.1c-0.5-0.6-1-1.1-1.7-1.5s-1.5-0.5-2.4-0.5
				c-0.9,0-1.7,0.2-2.4,0.5c-0.7,0.4-1.3,0.9-1.7,1.5c-0.5,0.6-0.8,1.3-1.1,2.1S222.3,65,222.3,65.8z"/>
			<path class="st2" d="M243.8,53.1V73h-1.1V53.1H243.8z"/>
			<path class="st2" d="M252.1,65.8c0-1,0.1-2,0.4-2.9s0.7-1.7,1.3-2.4c0.6-0.7,1.2-1.2,2.1-1.6c0.8-0.4,1.8-0.6,2.8-0.6
				c1.1,0,2,0.2,2.8,0.6c0.8,0.4,1.5,0.9,2.1,1.6c0.6,0.7,1,1.5,1.3,2.4c0.3,0.9,0.4,1.9,0.4,2.9c0,1-0.1,2-0.4,2.9
				c-0.3,0.9-0.7,1.7-1.3,2.4c-0.6,0.7-1.2,1.2-2.1,1.6c-0.8,0.4-1.8,0.6-2.8,0.6c-1.1,0-2-0.2-2.8-0.6c-0.8-0.4-1.5-0.9-2.1-1.6
				c-0.6-0.7-1-1.5-1.3-2.4S252.1,66.9,252.1,65.8z M253.1,65.8c0,0.9,0.1,1.7,0.4,2.5c0.2,0.8,0.6,1.5,1.1,2.1
				c0.5,0.6,1,1.1,1.7,1.5c0.7,0.4,1.5,0.5,2.4,0.5c0.9,0,1.7-0.2,2.4-0.5s1.3-0.9,1.7-1.5c0.5-0.6,0.8-1.3,1.1-2.1
				c0.2-0.8,0.4-1.6,0.4-2.5c0-0.9-0.1-1.7-0.4-2.5c-0.2-0.8-0.6-1.5-1.1-2.1c-0.5-0.6-1-1.1-1.7-1.5s-1.5-0.5-2.4-0.5
				c-0.9,0-1.7,0.2-2.4,0.5c-0.7,0.4-1.3,0.9-1.7,1.5c-0.5,0.6-0.8,1.3-1.1,2.1C253.3,64.2,253.1,65,253.1,65.8z"/>
			<path class="st2" d="M285.1,58.7v13.6c0,0.8-0.1,1.6-0.3,2.3c-0.2,0.8-0.5,1.4-1,2c-0.5,0.6-1.1,1-1.9,1.4
				c-0.8,0.3-1.8,0.5-3,0.5c-0.8,0-1.5-0.1-2.1-0.2c-0.7-0.2-1.3-0.4-1.8-0.8s-0.9-0.8-1.2-1.4c-0.3-0.6-0.5-1.3-0.5-2.1h1.1
				c0.1,0.6,0.2,1.2,0.5,1.6c0.3,0.4,0.6,0.8,1,1.1c0.4,0.3,0.9,0.5,1.4,0.6c0.5,0.1,1.1,0.2,1.7,0.2c1,0,1.8-0.1,2.5-0.4
				c0.7-0.3,1.2-0.7,1.6-1.2c0.4-0.5,0.7-1,0.8-1.6c0.2-0.6,0.2-1.2,0.2-1.8v-3.3H284c-0.5,1.1-1.2,1.9-2,2.4
				c-0.9,0.6-1.9,0.8-3.1,0.8c-1.1,0-2-0.2-2.7-0.5s-1.4-0.9-1.9-1.5c-0.5-0.6-0.9-1.4-1.1-2.2s-0.4-1.8-0.4-2.8
				c0-0.9,0.1-1.8,0.4-2.7c0.3-0.9,0.7-1.6,1.2-2.2c0.5-0.6,1.2-1.2,1.9-1.5c0.8-0.4,1.7-0.6,2.7-0.6c1.1,0,2.2,0.3,3.1,0.9
				s1.6,1.4,2,2.5h0.1v-3H285.1z M278.8,59.3c-0.9,0-1.6,0.2-2.3,0.5c-0.6,0.4-1.2,0.8-1.6,1.4c-0.4,0.6-0.7,1.2-0.9,2
				c-0.2,0.7-0.3,1.5-0.3,2.2c0,0.8,0.1,1.6,0.3,2.4c0.2,0.8,0.5,1.4,1,2s1,1,1.6,1.3c0.6,0.3,1.4,0.5,2.2,0.5
				c0.9,0,1.6-0.2,2.3-0.5c0.7-0.3,1.2-0.8,1.6-1.4c0.4-0.6,0.8-1.2,1-2s0.3-1.5,0.3-2.3c0-0.8-0.1-1.6-0.3-2.3
				c-0.2-0.7-0.5-1.4-1-2c-0.4-0.6-1-1-1.6-1.4C280.5,59.4,279.7,59.3,278.8,59.3z"/>
			<path class="st2" d="M294.1,56v-2.9h1.1V56H294.1z M294.1,73V58.7h1.1V73H294.1z"/>
			<path class="st2" d="M304.5,66v0.2c0,0.8,0.1,1.6,0.3,2.4s0.6,1.4,1,2c0.4,0.6,1,1,1.6,1.4c0.7,0.3,1.4,0.5,2.3,0.5
				c1.4,0,2.6-0.4,3.4-1.1c0.8-0.8,1.4-1.8,1.7-3.1h1.1c-0.3,1.7-1,3-2,3.8c-1,0.9-2.4,1.3-4.2,1.3c-1.1,0-2-0.2-2.8-0.6
				c-0.8-0.4-1.5-0.9-2-1.6c-0.5-0.7-0.9-1.4-1.2-2.3c-0.3-0.9-0.4-1.9-0.4-2.9c0-1,0.1-2,0.4-2.9s0.7-1.7,1.2-2.4
				c0.5-0.7,1.2-1.3,2-1.7c0.8-0.4,1.8-0.6,2.9-0.6c1,0,1.9,0.2,2.7,0.6s1.4,0.9,1.9,1.5c0.5,0.6,0.9,1.4,1.2,2.2s0.4,1.8,0.4,2.7
				c0,0.1,0,0.2,0,0.3c0,0.1,0,0.2,0,0.3H304.5z M315,65.1c0-0.8-0.2-1.5-0.4-2.2c-0.2-0.7-0.6-1.3-1-1.8c-0.4-0.5-1-1-1.6-1.3
				c-0.6-0.3-1.3-0.5-2.1-0.5c-0.9,0-1.6,0.2-2.3,0.5c-0.7,0.3-1.2,0.8-1.6,1.3c-0.4,0.5-0.8,1.1-1,1.9s-0.4,1.4-0.4,2.2H315z"/>
			<path class="st2" d="M324.6,68.2c0,0.7,0.2,1.3,0.4,1.8c0.3,0.5,0.6,0.9,1,1.3s0.9,0.6,1.5,0.8c0.6,0.2,1.2,0.3,1.8,0.3
				c0.5,0,1,0,1.5-0.1c0.5-0.1,1-0.2,1.5-0.5c0.5-0.2,0.8-0.5,1.1-0.9c0.3-0.4,0.4-0.9,0.4-1.5c0-0.8-0.2-1.4-0.7-1.8
				c-0.5-0.4-1.1-0.7-1.8-0.9c-0.7-0.2-1.5-0.4-2.4-0.5s-1.6-0.3-2.4-0.6c-0.7-0.3-1.3-0.7-1.8-1.2c-0.5-0.5-0.7-1.3-0.7-2.2
				c0-0.7,0.2-1.3,0.5-1.8c0.3-0.5,0.7-0.8,1.2-1.1c0.5-0.3,1-0.5,1.7-0.6c0.6-0.1,1.2-0.2,1.8-0.2c0.7,0,1.4,0.1,2.1,0.3
				c0.7,0.2,1.2,0.4,1.7,0.8c0.5,0.4,0.8,0.8,1.1,1.4c0.3,0.6,0.4,1.3,0.4,2.1h-1.1c0-0.7-0.1-1.2-0.3-1.7c-0.2-0.5-0.5-0.8-0.9-1.1
				c-0.4-0.3-0.8-0.5-1.4-0.6s-1.1-0.2-1.7-0.2c-0.5,0-1,0-1.5,0.1s-0.9,0.2-1.3,0.5c-0.4,0.2-0.7,0.5-1,0.9
				c-0.3,0.4-0.4,0.8-0.4,1.3c0,0.6,0.1,1,0.4,1.4c0.3,0.4,0.6,0.6,1.1,0.8c0.5,0.2,1,0.4,1.5,0.5c0.6,0.1,1.1,0.3,1.7,0.4
				c0.7,0.1,1.4,0.3,2,0.5c0.6,0.2,1.2,0.4,1.6,0.7c0.5,0.3,0.8,0.7,1.1,1.2c0.3,0.5,0.4,1.1,0.4,1.8c0,0.8-0.2,1.4-0.5,1.9
				c-0.4,0.5-0.8,0.9-1.3,1.2c-0.5,0.3-1.1,0.5-1.8,0.6c-0.7,0.1-1.3,0.2-1.9,0.2c-0.8,0-1.6-0.1-2.3-0.3c-0.7-0.2-1.3-0.5-1.8-1
				c-0.5-0.4-0.9-1-1.2-1.6c-0.3-0.6-0.5-1.4-0.5-2.2H324.6z"/>
		</g>
	</g>
	<g>
		<path class="st3" d="M96,82.6H11.1C5,82.6,0,77.6,0,71.5V11.1C0,5,5,0,11.1,0H96c6.1,0,11.1,5,11.1,11.1v60.3
			C107.1,77.6,102.1,82.6,96,82.6L96,82.6z"/>
		<path class="st3" d="M106,71.5c0,5.5-4.5,10-10,10H11.1c-5.5,0-10-4.5-10-10V11.1c0-5.5,4.5-10,10-10H96c5.5,0,10,4.5,10,10V71.5z
			"/>
		<path class="st4" d="M23.7,13.4c-4.1,0-7.3,3.3-7.3,7.3c0,4.1,3.3,7.3,7.3,7.3c4.1,0,7.4-3.3,7.4-7.3
			C31.1,16.7,27.8,13.4,23.7,13.4z"/>
		<path class="st5" d="M64.9,12.3l29.2,29.1H106V11.1c0-5.5-4.5-10-10-10H11.1c-5.5,0-10,4.5-10,10v30.3h34.7L64.9,12.3z M23.7,28.1
			c-4.1,0-7.3-3.3-7.3-7.3c0-4.1,3.3-7.3,7.3-7.3c4.1,0,7.4,3.3,7.4,7.3C31.1,24.8,27.8,28.1,23.7,28.1z"/>
		<path class="st6" d="M1.2,43.9v27.6c0,1.3,0.3,2.6,0.8,3.8l31.4-31.4H1.2z"/>
		<path class="st1" d="M95.3,43.9l-7.8,7.4L80,44.2l-7.5,7.1L65,44.2l-7.5,7.1L50,44.2l-7.5,7.1L36,45.2L3.4,77.7
			c1.8,2.3,4.6,3.7,7.8,3.7H96c5.5,0,10-4.5,10-10V43.9H95.3z"/>
	</g>
</g>
</svg>
